<?xml version="1.0" standalone="no"?>
<!DOCTYPE svg PUBLIC "-//W3C//DTD SVG 20010904//EN"
 "http://www.w3.org/TR/2001/REC-SVG-20010904/DTD/svg10.dtd">
<svg version="1.0" xmlns="http://www.w3.org/2000/svg"
 width="522.000000pt" height="522.000000pt" viewBox="0 0 522.000000 522.000000"
 preserveAspectRatio="xMidYMid meet">
<metadata>
Created by potrace 1.14, written by Peter Selinger 2001-2017
</metadata>
<g transform="translate(0.000000,522.000000) scale(0.100000,-0.100000)"
fill="#000000" stroke="none">
<path d="M2550 4033 c-52 -102 -99 -139 -220 -178 -65 -20 -132 -57 -178 -97
-40 -34 -46 -31 -86 46 -16 31 -33 56 -38 56 -4 0 -8 6 -8 14 0 7 -18 34 -41
60 -37 41 -45 46 -84 46 -38 0 -46 -4 -64 -34 -24 -39 -27 -99 -7 -138 8 -15
10 -28 6 -30 -5 -2 5 -52 21 -113 47 -176 47 -171 9 -178 -39 -8 -129 -68
-185 -123 -93 -91 -130 -203 -141 -420 -7 -130 -6 -134 13 -134 18 0 21 9 26
68 4 37 7 94 7 127 0 84 24 186 57 246 15 28 53 75 85 103 55 50 151 106 181
106 8 0 22 -19 32 -42 53 -129 76 -158 147 -182 29 -10 61 -27 71 -38 23 -27
22 -20 -9 57 -15 36 -24 68 -22 71 3 2 16 -23 28 -56 l23 -60 13 26 c12 22 12
30 2 42 -11 13 -10 15 4 9 10 -3 20 -1 24 6 4 7 3 9 -1 4 -12 -10 -45 22 -45
45 0 10 -4 18 -9 18 -5 0 -9 19 -9 43 -2 51 17 115 28 97 5 -9 9 -9 14 -1 9
14 -15 82 -26 75 -4 -3 -8 9 -8 26 0 17 -7 44 -15 60 -15 28 -14 29 28 65 50
44 111 76 191 100 81 25 144 70 184 130 19 28 37 51 40 52 4 2 22 -20 40 -47
41 -63 96 -103 180 -131 102 -33 154 -63 222 -125 71 -66 88 -96 125 -217 l26
-88 35 31 c19 16 44 30 55 30 68 0 223 -119 272 -207 28 -53 57 -157 57 -210
0 -29 -2 -32 -22 -24 -18 6 -24 18 -28 52 l-5 44 -69 23 c-76 25 -141 31 -159
13 -8 -8 -7 -11 3 -11 10 0 9 -4 -3 -18 -27 -30 -19 -38 11 -11 l27 24 -22
-25 c-12 -14 -23 -41 -25 -60 -3 -31 -6 -35 -28 -32 -14 2 -44 10 -68 18 -56
18 -57 18 -58 -10 -1 -18 2 -22 17 -19 17 5 86 -39 114 -72 9 -11 119 8 278
48 24 7 27 5 27 -17 0 -20 -7 -26 -42 -34 -24 -6 -88 -22 -143 -36 -75 -19
-101 -22 -107 -13 -4 7 -8 8 -8 4 0 -9 -78 45 -116 80 -13 12 -24 18 -24 12 0
-5 10 -17 21 -27 12 -9 26 -22 33 -27 50 -46 88 -67 113 -63 43 8 249 57 269
65 11 4 15 3 11 -4 -4 -6 -1 -13 5 -16 22 -7 -7 -32 -85 -71 l-72 -37 -65 15
c-78 19 -113 19 -50 1 44 -13 44 -13 -57 -14 -85 -1 -103 -4 -103 -16 0 -11
11 -15 35 -15 46 0 101 -23 114 -48 20 -37 13 -87 -15 -117 -23 -25 -30 -27
-74 -22 -26 3 -50 4 -53 1 -10 -11 112 -125 143 -134 57 -16 130 2 130 33 0 6
-15 7 -38 3 -34 -5 -43 -2 -78 31 l-39 36 40 13 c89 31 112 109 51 170 l-34
34 79 0 79 0 0 -149 c0 -123 -3 -150 -15 -155 -8 -3 -15 -10 -15 -16 0 -11
132 -15 143 -4 3 3 -3 14 -12 23 -15 15 -18 39 -20 159 l-2 141 26 3 c54 7 27
23 -45 28 l-75 5 52 28 c29 15 55 27 58 27 3 0 5 -11 5 -25 0 -18 5 -25 20
-25 11 0 20 6 20 14 0 19 51 76 68 76 8 0 27 14 43 31 36 38 64 32 78 -16 10
-37 -1 -110 -23 -154 -20 -39 -82 -55 -120 -32 -14 8 -26 22 -26 29 0 9 -6 12
-16 8 -9 -3 -20 -6 -25 -6 -6 0 -2 -13 7 -29 14 -24 15 -32 5 -45 -12 -14 -8
-14 34 1 59 20 112 7 149 -38 62 -73 2 -219 -113 -276 -66 -33 -177 -42 -266
-22 -33 7 -64 13 -69 14 -15 0 -65 -166 -56 -189 8 -24 23 -25 28 -2 2 9 -3
16 -13 16 -9 0 -13 5 -10 10 10 16 23 12 35 -10 22 -41 -20 -90 -46 -55 -12
17 -16 1 -30 -135 -3 -38 -2 -41 7 -24 6 12 23 27 38 34 14 6 23 9 19 5 -4 -4
-1 -17 7 -29 31 -43 8 -96 -40 -96 -18 0 -25 7 -30 30 -4 16 -13 30 -20 30 -8
0 -30 14 -49 30 l-35 31 -26 -88 c-34 -113 -61 -158 -131 -222 -66 -60 -100
-79 -208 -115 -99 -33 -154 -73 -192 -136 -16 -27 -32 -50 -35 -50 -3 0 -16
18 -28 40 -43 77 -98 115 -233 159 -84 28 -143 67 -212 142 -46 49 -59 72 -76
132 -12 39 -26 87 -31 105 l-11 33 -34 -31 c-19 -16 -44 -30 -55 -30 -49 0
-165 73 -227 144 -67 77 -101 185 -103 334 -1 72 -4 83 -26 104 l-25 23 6
-101 c11 -177 30 -251 84 -339 74 -119 246 -223 325 -196 37 14 41 10 60 -59
22 -75 63 -137 128 -191 71 -60 109 -81 199 -114 137 -48 172 -80 238 -209
l19 -39 28 49 c61 104 86 134 137 160 57 29 64 26 89 -38 l16 -41 6 31 c5 26
11 32 32 32 30 0 59 -40 50 -70 -7 -23 -53 -28 -74 -8 -20 20 56 -118 115
-207 88 -133 239 -285 266 -268 6 3 8 1 5 -4 -4 -6 16 -21 46 -34 43 -20 68
-24 152 -24 85 0 107 4 148 24 177 87 349 300 375 463 22 138 -27 261 -191
488 -9 14 -33 48 -51 76 -31 46 -33 53 -19 67 28 28 6 51 -43 46 -8 0 -44 78
-44 96 0 7 7 15 15 19 8 3 15 14 15 24 0 26 26 51 133 125 163 114 214 197
188 302 -6 24 -11 72 -11 107 -1 122 -39 246 -92 295 -28 27 -89 53 -121 53
-21 0 -24 4 -19 28 3 15 12 32 20 38 24 18 -28 48 -67 39 -37 -8 -50 -24 -28
-37 9 -5 19 -24 23 -43 5 -28 1 -40 -20 -66 l-26 -31 0 34 c0 55 -28 170 -55
225 -65 132 -261 264 -348 234 -37 -14 -41 -10 -61 59 -35 125 -160 244 -314
300 -155 56 -165 63 -232 178 -23 39 -43 72 -44 72 0 0 -17 -30 -36 -67z
m-478 -287 c7 -22 14 -43 18 -46 11 -11 60 -116 60 -130 -1 -23 -39 -98 -40
-77 0 11 -9 30 -20 45 -14 17 -20 38 -18 63 1 21 -1 42 -5 45 -4 4 -7 0 -7
-10 0 -9 -5 -14 -10 -11 -6 4 -8 11 -5 16 4 5 1 9 -4 9 -7 0 -10 28 -9 79 3
88 18 94 40 17z m-97 -214 c-3 -3 -11 0 -18 7 -9 10 -8 11 6 5 10 -3 15 -9 12
-12z m190 -9 c-4 -10 -14 -34 -22 -53 l-14 -35 7 40 c5 37 19 65 31 65 3 0 2
-8 -2 -17z m-151 -79 c3 -8 2 -12 -4 -9 -6 3 -10 10 -10 16 0 14 7 11 14 -7z
m35 -69 c11 -19 16 -37 11 -40 -5 -3 -11 -1 -15 5 -4 6 -9 8 -13 6 -4 -2 -13
2 -20 10 -10 11 -10 14 0 14 6 0 3 7 -8 15 -18 13 -18 14 5 8 17 -4 22 -3 17
5 -4 7 -5 12 -3 12 3 0 14 -16 26 -35z m-2 -90 c0 -8 -4 -15 -9 -15 -10 0 -11
14 -1 23 9 10 10 9 10 -8z m1448 -165 c3 -5 1 -10 -4 -10 -6 0 -11 5 -11 10 0
6 2 10 4 10 3 0 8 -4 11 -10z m-119 -12 c4 -7 4 -10 -1 -6 -4 4 -15 2 -24 -5
-14 -11 -14 -10 -2 6 16 20 18 21 27 5z m377 -142 c8 -19 -20 -56 -43 -56 -28
0 -34 18 -16 45 18 27 51 33 59 11z m-285 -678 c-3 -16 1 -33 9 -39 16 -14 17
-61 1 -77 -16 -16 -58 -15 -59 1 -2 26 3 62 12 73 4 5 6 20 2 32 -4 18 -2 21
11 16 9 -3 16 -1 16 5 0 6 -7 11 -16 11 -8 0 -13 4 -9 10 13 20 37 -3 33 -32z
m40 20 c-2 -13 3 -28 12 -34 12 -10 12 -14 1 -28 -17 -20 -34 -10 -28 15 3 11
1 19 -4 19 -5 0 -9 7 -9 16 0 8 5 12 10 9 6 -3 10 -2 10 4 0 5 -6 12 -12 14
-8 3 -5 6 5 6 14 1 18 -5 15 -21z m72 -14 c0 -15 -34 -36 -44 -27 -10 10 -7
38 6 51 13 13 38 -2 38 -24z m-166 0 c17 -44 -19 -93 -59 -78 -32 13 -2 94 35
94 10 0 21 -7 24 -16z m164 -56 c7 -7 12 -17 12 -24 0 -17 -61 -84 -76 -84
-16 0 -26 28 -19 51 7 22 25 24 44 7 11 -11 12 -10 3 7 -7 13 -7 26 -1 37 11
21 21 22 37 6z m-168 -103 c0 -24 -12 -45 -26 -45 -8 0 -14 9 -14 20 0 13 5
18 15 14 8 -4 15 -1 15 5 0 6 -7 11 -16 11 -8 0 -13 4 -9 10 8 13 35 1 35 -15z
m192 8 c22 -20 23 -37 2 -58 -12 -11 -20 -13 -29 -5 -9 8 -14 6 -19 -5 -7 -20
-32 -19 -40 1 -13 33 -7 46 19 42 19 -4 25 -1 25 12 0 32 15 37 42 13z m-114
-25 c7 -7 12 -22 12 -34 0 -29 -31 -40 -47 -18 -16 21 -17 34 -3 34 6 0 10 -4
10 -10 0 -5 5 -10 10 -10 6 0 10 7 10 15 0 8 -7 15 -16 15 -8 0 -12 5 -9 10 8
13 18 13 33 -2z m-140 -50 c2 -18 -3 -30 -16 -37 -11 -6 -22 -7 -26 -4 -8 9
-8 58 1 67 15 14 38 0 41 -26z m68 13 c-3 -5 1 -14 9 -21 16 -13 20 -48 7 -66
-14 -21 -41 -24 -52 -4 -13 24 -14 62 -1 41 11 -17 45 -7 38 12 -2 6 -14 12
-26 11 -28 -1 -27 14 2 26 29 11 29 12 23 1z m199 -76 c0 -38 -31 -57 -51 -31
-17 24 -18 73 -1 79 22 8 52 -19 52 -48z m-95 10 c16 -19 5 -65 -15 -65 -19 0
-40 43 -32 64 8 20 31 20 47 1z m-64 -63 c27 -18 35 -51 19 -82 -26 -50 -57
-37 -79 33 -12 39 27 71 60 49z m261 -31 c17 -22 16 -86 -2 -101 -36 -30 -95
25 -95 89 0 53 60 60 97 12z m-131 2 c21 -28 17 -70 -8 -87 -20 -14 -23 -13
-45 16 -22 31 -30 68 -16 81 13 13 56 7 69 -10z m-328 -10 c19 -5 22 -12 22
-57 0 -73 -17 -163 -38 -206 l-18 -37 27 16 c23 13 30 13 43 2 23 -19 20 -77
-4 -101 l-20 -20 23 0 c13 0 34 -11 47 -25 43 -46 12 -140 -61 -178 -35 -18
-91 -16 -116 5 -35 29 17 155 76 185 24 11 24 12 -10 15 -31 3 -34 6 -34 36 0
17 -1 32 -3 32 -2 0 -15 -9 -29 -20 -52 -41 -185 -54 -283 -29 l-50 13 57 24
c77 32 170 100 216 156 36 44 76 119 77 143 0 6 5 24 10 38 8 20 15 25 28 20
9 -4 27 -10 40 -12z m147 -73 c25 -49 -4 -110 -52 -110 -27 0 -37 19 -37 70 0
54 10 70 43 70 24 0 34 -7 46 -30z m122 -32 c27 -25 30 -64 7 -96 -22 -32 -51
-28 -74 11 -48 78 4 144 67 85z m113 -10 c26 -28 23 -66 -7 -85 -21 -14 -23
-13 -43 19 -24 40 -25 52 -4 72 21 21 29 20 54 -6z m162 -25 c21 -19 25 -82 6
-101 -7 -7 -22 -12 -35 -12 -36 0 -64 69 -47 114 8 21 52 20 76 -1z m-362 -85
c53 -57 28 -146 -47 -164 -48 -12 -76 52 -52 123 21 64 62 81 99 41z m280 -15
c25 -32 21 -79 -7 -101 -24 -17 -35 -11 -55 29 -22 43 -22 63 -2 83 22 23 40
20 64 -11z m-132 -38 c36 -30 47 -70 32 -110 -22 -58 -66 -70 -99 -29 -34 43
-45 98 -26 134 20 38 52 39 93 5z m248 -3 c23 -16 44 -58 44 -88 0 -24 -8 -39
-31 -58 -33 -28 -38 -30 -56 -18 -16 10 -43 75 -43 104 0 50 50 85 86 60z
m-348 -180 c2 -32 -1 -43 -20 -56 -29 -20 -54 -20 -62 0 -13 34 -6 84 15 105
18 18 23 19 42 6 15 -10 23 -26 25 -55z m242 53 c7 -9 15 -37 18 -64 4 -44 2
-49 -28 -74 -35 -30 -84 -36 -94 -11 -18 46 -1 137 28 156 19 13 63 9 76 -7z
m-579 -16 c24 -24 19 -52 -17 -89 -52 -53 -166 -20 -150 44 14 55 127 85 167
45z m703 -120 c48 -38 29 -148 -31 -180 -32 -17 -87 -16 -108 1 -35 29 3 144
58 179 40 26 48 26 81 0z m-324 -9 c30 -30 35 -65 15 -116 -24 -64 -84 -95
-140 -74 -33 12 -39 43 -20 99 18 56 41 86 76 100 36 14 47 13 69 -9z m-476
-16 c22 -8 20 -37 -3 -58 -24 -22 -70 -18 -85 7 -20 33 42 69 88 51z m94 -53
c23 -14 10 -72 -20 -94 -26 -19 -55 -19 -87 2 -22 14 -5 56 31 80 36 22 55 26
76 12z m510 -13 c33 -33 -3 -108 -52 -108 -32 0 -39 13 -32 55 11 56 54 83 84
53z m-323 -28 c29 -32 16 -104 -28 -148 -32 -32 -42 -36 -87 -35 -91 1 -113
48 -60 122 55 76 136 104 175 61z m224 -136 c25 -32 26 -59 6 -108 -37 -88
-175 -101 -175 -15 0 40 33 102 67 128 39 29 77 27 102 -5z m175 10 c27 -26
20 -81 -13 -115 -31 -31 -67 -37 -103 -18 -49 26 22 145 89 148 6 1 19 -6 27
-15z m-376 -56 c18 -18 14 -56 -8 -78 -40 -40 -120 -13 -99 34 12 25 55 55 80
56 8 0 20 -5 27 -12z"/>
<path d="M3700 2940 c0 -5 5 -10 10 -10 6 0 10 5 10 10 0 6 -4 10 -10 10 -5 0
-10 -4 -10 -10z"/>
<path d="M3435 2230 c-8 -14 3 -30 21 -30 8 0 14 9 14 20 0 21 -24 28 -35 10z"/>
<path d="M3500 2259 c0 -5 5 -7 10 -4 6 3 10 8 10 11 0 2 -4 4 -10 4 -5 0 -10
-5 -10 -11z"/>
<path d="M3546 2311 c-4 -7 -5 -15 -2 -18 9 -9 19 4 14 18 -4 11 -6 11 -12 0z"/>
<path d="M3371 2291 c-15 -10 -8 -41 9 -41 15 0 25 29 14 40 -5 5 -15 5 -23 1z"/>
<path d="M3550 2226 c0 -9 5 -16 10 -16 6 0 10 4 10 9 0 6 -4 13 -10 16 -5 3
-10 -1 -10 -9z"/>
<path d="M3505 2180 c-8 -13 4 -32 16 -25 12 8 12 35 0 35 -6 0 -13 -4 -16
-10z"/>
<path d="M3570 2125 c0 -8 7 -15 15 -15 8 0 15 7 15 15 0 8 -7 15 -15 15 -8 0
-15 -7 -15 -15z"/>
<path d="M3520 2100 c0 -5 5 -10 10 -10 6 0 10 5 10 10 0 6 -4 10 -10 10 -5 0
-10 -4 -10 -10z"/>
<path d="M3310 2075 c0 -8 5 -15 10 -15 6 0 10 7 10 15 0 8 -4 15 -10 15 -5 0
-10 -7 -10 -15z"/>
<path d="M3564 2029 c-10 -17 13 -36 27 -22 12 12 4 33 -11 33 -5 0 -12 -5
-16 -11z"/>
<path d="M3482 2006 c1 -10 8 -17 13 -17 15 1 12 24 -3 29 -9 3 -13 -2 -10
-12z"/>
<path d="M3410 1920 c0 -24 29 -38 40 -20 12 19 1 40 -21 40 -12 0 -19 -7 -19
-20z"/>
<path d="M3637 1924 c-14 -14 -7 -44 14 -55 26 -14 42 0 37 32 -3 24 -36 38
-51 23z"/>
<path d="M3524 1915 c-9 -22 22 -53 37 -38 15 15 7 47 -14 51 -9 2 -20 -4 -23
-13z"/>
<path d="M3242 1608 c-16 -16 -15 -33 3 -48 20 -17 47 5 43 34 -4 24 -28 32
-46 14z"/>
<path d="M3240 1472 c-16 -13 -23 -29 -22 -52 1 -51 45 -67 82 -30 29 29 26
74 -5 88 -32 15 -29 15 -55 -6z"/>
<path d="M3334 1836 c-10 -26 4 -48 28 -44 17 2 23 10 23 28 0 18 -6 26 -23
28 -13 2 -25 -3 -28 -12z"/>
<path d="M3461 1797 c-9 -11 -7 -20 8 -38 23 -28 45 -16 39 22 -4 28 -30 36
-47 16z"/>
<path d="M3592 1778 c2 -12 11 -24 21 -26 14 -3 18 1 15 20 -2 12 -11 24 -21
26 -14 3 -18 -1 -15 -20z"/>
<path d="M3734 1755 c-4 -9 0 -23 9 -32 21 -21 49 -9 45 19 -4 28 -45 38 -54
13z"/>
<path d="M3373 1674 c-18 -8 -16 -59 3 -75 24 -20 49 1 49 42 0 27 -4 34 -20
36 -11 1 -26 -1 -32 -3z"/>
<path d="M3672 1671 c-19 -11 -11 -45 11 -49 9 -2 20 4 23 13 9 21 -16 47 -34
36z"/>
<path d="M3512 1618 c-18 -18 -15 -43 8 -63 34 -31 69 0 56 50 -7 27 -42 35
-64 13z"/>
<path d="M3787 1609 c-33 -19 -15 -79 24 -79 31 0 40 63 11 79 -11 6 -24 6
-35 0z"/>
<path d="M3422 1488 c-15 -19 4 -60 25 -56 22 4 30 47 11 59 -18 12 -24 11
-36 -3z"/>
<path d="M3656 1487 c-38 -27 2 -95 42 -71 21 14 28 50 12 70 -15 17 -31 18
-54 1z"/>
<path d="M3071 1484 c-33 -23 -24 -58 15 -62 53 -5 72 43 26 67 -14 7 -25 6
-41 -5z"/>
<path d="M3771 1341 c-23 -23 -26 -43 -11 -72 22 -39 90 -8 90 41 -1 42 -49
61 -79 31z"/>
<path d="M3452 1343 c-21 -8 -33 -50 -22 -78 19 -51 90 -18 90 42 0 31 -35 49
-68 36z"/>
<path d="M3013 1333 c-17 -6 -16 -30 0 -36 20 -8 41 9 34 27 -7 16 -13 18 -34
9z"/>
<path d="M3087 1274 c-10 -11 -9 -42 3 -49 20 -12 51 6 48 28 -3 22 -36 35
-51 21z"/>
<path d="M3600 1246 c0 -33 20 -44 37 -20 17 24 12 38 -15 42 -18 3 -22 -2
-22 -22z"/>
<path d="M3232 1230 c-52 -49 -6 -124 52 -86 37 24 45 65 16 88 -29 23 -41 23
-68 -2z"/>
<path d="M3471 1104 c-25 -18 -30 -81 -6 -90 43 -17 101 38 79 73 -16 26 -49
33 -73 17z"/>
<path d="M3666 1104 c-22 -21 -20 -51 4 -64 15 -8 24 -6 40 10 11 11 20 24 20
29 0 12 -29 41 -40 41 -5 0 -16 -7 -24 -16z"/>
<path d="M3302 1048 c-16 -16 -15 -35 3 -42 25 -9 46 5 43 28 -3 24 -28 32
-46 14z"/>
<path d="M2542 3845 c8 -9 88 -12 88 -3 0 4 -21 8 -47 8 -25 0 -44 -2 -41 -5z"/>
<path d="M2493 3820 c-68 -41 -127 -161 -72 -147 21 6 21 5 -2 -20 -19 -20
-20 -25 -6 -20 18 7 24 -8 7 -18 -16 -10 -11 -25 6 -18 10 4 14 14 11 30 -2
13 -1 25 3 28 8 5 35 -223 27 -231 -5 -5 -27 115 -28 149 0 15 -3 16 -15 6
-10 -8 -11 -14 -4 -19 6 -4 8 -15 4 -25 -5 -13 -4 -16 4 -11 16 9 15 -7 0 -22
-9 -9 -9 -12 1 -12 8 0 10 -7 6 -21 -5 -15 -4 -19 4 -15 15 10 14 -7 -1 -22
-7 -7 -8 -12 -2 -12 6 0 11 -13 11 -29 0 -38 28 -81 53 -81 22 0 24 -7 21 -61
-2 -28 3 -41 19 -52 22 -15 22 -16 5 -60 -21 -55 -14 -79 31 -113 l34 -26 0
-94 c0 -87 1 -94 20 -94 19 0 20 8 23 208 l2 207 3 -207 c1 -131 6 -208 12
-208 6 0 10 65 10 175 0 164 1 176 21 196 17 17 20 31 17 72 -2 43 0 53 17 62
72 37 95 73 95 150 0 82 -44 293 -68 324 -20 27 -84 55 -111 48 -9 -2 5 -10
32 -17 53 -14 104 -62 72 -68 -14 -3 -14 -6 5 -19 17 -12 19 -17 9 -24 -10 -6
-11 -9 -1 -9 19 0 14 -20 -5 -21 -14 0 -13 -2 5 -9 23 -10 30 -30 10 -30 -6 0
-3 -7 8 -15 18 -14 18 -14 -6 -15 -25 -1 -25 -1 -2 -10 24 -10 29 -26 10 -33
-8 -3 -6 -6 5 -6 25 -1 21 -21 -5 -22 l-23 0 24 -10 c15 -6 21 -15 17 -24 -3
-8 -1 -15 4 -15 6 0 10 -17 10 -37 0 -49 -32 -98 -64 -98 -22 -1 -23 1 -10 19
24 35 15 39 -12 7 -32 -38 -51 -41 -27 -3 16 24 14 24 -14 -5 -36 -38 -51 -43
-29 -11 28 39 17 39 -20 0 -28 -29 -33 -32 -23 -12 l12 25 -24 -21 c-13 -12
-32 -24 -42 -28 -15 -5 -14 0 7 25 26 30 35 56 16 44 -6 -4 -10 9 -10 31 0 35
-1 36 -30 31 -16 -4 -30 -4 -30 -1 0 12 88 44 123 44 20 0 37 5 37 11 0 12
-79 4 -123 -13 -46 -18 -43 0 4 22 24 11 67 20 94 20 37 1 45 4 30 10 -25 10
-102 1 -137 -16 -32 -17 -41 -18 -33 -4 15 24 86 50 139 50 52 0 55 -1 59 -27
4 -28 4 -28 5 2 0 17 -3 50 -8 75 l-9 45 2 -42 3 -43 -64 0 c-34 0 -79 -7 -99
-15 -32 -14 -34 -14 -22 1 17 21 52 34 114 44 l50 8 -50 0 c-27 1 -67 -5 -87
-12 -21 -8 -38 -10 -38 -6 0 16 75 42 123 42 32 0 45 3 36 9 -21 13 -79 10
-124 -6 -50 -18 -55 -13 -12 14 25 15 51 21 92 21 32 0 56 2 53 5 -13 14 -127
6 -159 -10 -31 -17 -33 -17 -20 -1 23 28 52 40 111 47 l55 6 -58 2 c-37 0 -70
-5 -90 -16 -30 -15 -31 -15 -18 1 27 33 72 48 124 43 28 -2 43 -1 35 4 -7 5
-30 9 -50 9 -27 0 -40 6 -48 20 -6 11 -16 20 -23 19 -9 0 -9 -2 1 -6 20 -8 14
-22 -8 -16 -16 4 -18 9 -9 24 12 23 11 23 -28 -1z m8 -298 c6 -41 9 -76 6 -78
-9 -9 -26 89 -31 181 -6 97 -4 92 25 -103z m198 -244 c-1 -24 -4 -33 -6 -20
-3 15 -11 22 -27 22 -19 0 -25 -7 -30 -39 -10 -64 -21 -55 -18 15 l4 64 39 0
39 0 -1 -42z m-111 -7 c20 -12 11 -65 -11 -69 -16 -3 -17 -1 -5 17 10 17 10
25 0 41 -13 21 -6 26 16 11z m18 -169 c1 -56 0 -62 -19 -62 -11 0 -26 8 -33
18 -15 19 -18 52 -5 52 5 0 14 14 21 30 19 47 35 31 36 -38z"/>
<path d="M2723 3730 c3 -14 9 -53 13 -88 4 -34 10 -64 14 -67 9 -5 -16 165
-26 174 -4 3 -4 -5 -1 -19z"/>
<path d="M2692 3705 c0 -16 2 -22 5 -12 2 9 2 23 0 30 -3 6 -5 -1 -5 -18z"/>
<path d="M2225 3620 c-4 -6 8 -10 29 -10 41 0 47 -11 14 -25 -26 -11 -36 -58
-18 -80 6 -7 25 -15 43 -17 18 -3 41 -8 52 -12 14 -6 16 -5 6 2 -8 6 -11 18
-6 31 9 28 -23 42 -40 17 -9 -12 -15 -14 -20 -6 -11 17 4 60 20 60 14 0 55 34
55 45 0 10 -129 5 -135 -5z"/>
<path d="M2751 3544 c0 -11 3 -14 6 -6 3 7 2 16 -1 19 -3 4 -6 -2 -5 -13z"/>
<path d="M2200 3478 c0 -7 9 -40 20 -73 19 -57 20 -52 3 43 -5 32 -23 55 -23
30z"/>
<path d="M2602 3440 c0 -19 2 -27 5 -17 2 9 2 25 0 35 -3 9 -5 1 -5 -18z"/>
<path d="M2380 3380 c-4 -58 0 -103 9 -112 4 -5 5 22 3 60 -4 88 -9 108 -12
52z"/>
<path d="M2636 3393 c-6 -14 -5 -15 5 -6 7 7 10 15 7 18 -3 3 -9 -2 -12 -12z"/>
<path d="M3016 3401 c-6 -9 2 -38 16 -56 49 -63 53 -66 98 -67 39 0 51 -6 93
-47 73 -69 76 -79 27 -87 -22 -4 -37 -10 -34 -15 3 -5 -10 -6 -28 -2 -48 9
-25 -9 30 -24 52 -13 79 -16 69 -7 -3 4 0 13 8 21 21 20 1 58 -58 112 -35 33
-49 54 -53 82 -7 44 -28 66 -81 85 -45 16 -80 18 -87 5z m131 -73 c31 -29 29
-40 -4 -26 -38 16 -46 24 -39 37 10 16 17 14 43 -11z"/>
<path d="M2770 3380 c-6 -11 -8 -20 -6 -20 3 0 10 9 16 20 6 11 8 20 6 20 -3
0 -10 -9 -16 -20z"/>
<path d="M2330 3375 c-6 -8 -10 -19 -8 -24 1 -5 11 2 21 15 19 26 8 34 -13 9z"/>
<path d="M1750 3340 c0 -5 25 -10 55 -10 42 0 55 -3 55 -15 0 -10 -10 -15 -34
-15 -38 0 -66 -24 -48 -42 8 -8 8 -17 1 -30 -31 -59 42 -105 129 -82 36 10 25
23 -16 17 -27 -4 -42 -1 -51 11 -19 22 -6 66 19 66 25 0 26 -26 3 -39 -17 -9
-17 -10 0 -16 32 -13 67 3 67 30 0 28 -30 45 -76 45 -16 0 -24 5 -21 13 2 7
21 12 46 11 37 -1 41 2 41 23 0 16 6 23 20 23 11 0 20 5 20 10 0 6 -42 10
-105 10 -63 0 -105 -4 -105 -10z"/>
<path d="M2295 3310 c3 -5 8 -10 11 -10 2 0 4 5 4 10 0 6 -5 10 -11 10 -5 0
-7 -4 -4 -10z"/>
<path d="M2075 3161 c-17 -10 -39 -31 -49 -47 l-19 -29 34 31 c19 17 42 34 52
37 9 4 17 11 17 17 0 13 0 13 -35 -9z"/>
<path d="M2186 3127 c3 -10 9 -15 12 -12 3 3 0 11 -7 18 -10 9 -11 8 -5 -6z"/>
<path d="M2846 3114 c-8 -21 1 -34 22 -34 14 0 15 2 3 9 -12 8 -12 12 -2 25
11 13 11 16 -2 16 -8 0 -18 -7 -21 -16z"/>
<path d="M2217 3055 c3 -8 9 -12 14 -9 12 7 11 11 -5 17 -10 4 -13 1 -9 -8z"/>
<path d="M2225 3020 c-3 -5 -1 -10 4 -10 6 0 11 5 11 10 0 6 -2 10 -4 10 -3 0
-8 -4 -11 -10z"/>
<path d="M1780 2978 c-11 -18 -20 -40 -20 -48 0 -39 69 -90 122 -90 31 0 66
37 74 77 5 26 2 33 -17 44 -15 8 -24 8 -27 1 -4 -13 -42 -4 -67 18 -38 32 -44
32 -65 -2z m60 -73 c-27 -50 -62 -22 -53 44 l6 43 30 -31 c29 -28 30 -32 17
-56z"/>
<path d="M2230 2980 c0 -5 7 -10 15 -10 8 0 15 5 15 10 0 6 -7 10 -15 10 -8 0
-15 -4 -15 -10z"/>
<path d="M2920 2949 c-51 -20 -75 -82 -50 -130 10 -19 5 -19 -255 -19 -229 0
-265 -2 -265 -15 0 -9 9 -15 25 -15 l25 0 0 -150 c0 -125 -3 -152 -15 -156
-34 -14 -11 -24 54 -24 71 0 96 11 63 29 -16 9 -19 26 -21 155 l-2 146 185 0
186 0 0 -50 c0 -27 -2 -50 -5 -50 -2 0 -24 8 -47 17 -63 26 -168 24 -205 -3
-37 -27 -55 -81 -42 -126 14 -52 50 -80 109 -86 91 -9 145 36 145 121 0 52 4
56 30 27 24 -26 18 -137 -8 -152 -31 -17 -7 -28 58 -28 61 0 91 12 60 24 -12
4 -15 32 -15 156 l0 150 50 0 50 0 0 -149 c0 -141 -1 -150 -20 -156 -39 -12
-8 -25 59 -25 76 0 90 7 61 27 -18 13 -20 26 -20 159 l0 144 25 0 c16 0 25 6
25 15 0 9 -9 15 -25 15 -21 0 -25 5 -25 30 0 22 5 30 18 31 13 0 12 2 -5 9
-12 5 -30 21 -39 36 -31 46 -105 66 -164 43z m96 -54 c7 -19 14 -48 14 -65 0
-27 -3 -30 -33 -30 -26 0 -36 6 -45 25 -16 35 -15 56 4 83 22 32 43 27 60 -13z
m-307 -241 c27 -34 27 -89 1 -131 -24 -40 -32 -41 -59 -7 -38 48 -20 164 24
164 7 0 23 -12 34 -26z"/>
<path d="M3158 2853 c6 -2 18 -2 25 0 6 3 1 5 -13 5 -14 0 -19 -2 -12 -5z"/>
<path d="M3220 2840 c14 -4 34 -8 45 -8 16 0 15 2 -5 8 -14 4 -34 8 -45 8 -16
0 -15 -2 5 -8z"/>
<path d="M1520 2785 c0 -11 12 -15 51 -15 45 0 55 -4 85 -34 44 -44 45 -82 4
-126 -28 -30 -34 -32 -79 -27 -27 3 -51 3 -54 1 -8 -8 118 -134 134 -135 8 0
26 -3 41 -5 32 -5 98 20 98 37 0 8 -12 10 -40 5 -34 -5 -44 -2 -75 25 -19 17
-35 34 -35 39 0 19 86 39 140 32 l55 -7 3 -42 c2 -32 -2 -47 -17 -62 -12 -12
-21 -23 -21 -26 0 -3 31 -5 69 -5 67 0 100 13 67 26 -14 5 -16 29 -16 155 l0
149 140 0 140 0 0 -25 c0 -23 -3 -25 -50 -25 -100 0 -160 -48 -160 -127 0 -97
87 -154 203 -133 41 8 44 5 21 -28 -16 -23 -16 -23 17 -20 58 5 93 81 73 156
-5 19 -13 22 -51 22 -37 0 -44 -3 -39 -16 20 -51 18 -61 -13 -74 -59 -24 -126
23 -126 90 0 69 61 110 163 110 41 0 42 0 42 35 0 31 3 35 25 35 16 0 25 6 25
15 0 13 -52 15 -410 15 -358 0 -410 -2 -410 -15z m330 -85 c0 -77 -12 -93 -62
-83 -23 4 -26 9 -22 33 7 32 -16 82 -48 104 -21 15 -18 16 55 16 l77 0 0 -70z"/>
<path d="M1502 2740 c-6 -11 -23 -22 -37 -26 l-25 -6 32 -17 c22 -11 37 -27
44 -51 8 -23 19 -36 32 -38 19 -3 20 0 13 25 -5 15 -14 40 -21 55 -11 23 -10
31 4 53 16 24 16 25 -6 25 -13 0 -29 -9 -36 -20z"/>
<path d="M3300 1961 c0 -26 17 -36 35 -21 23 19 18 40 -10 40 -18 0 -25 -5
-25 -19z"/>
<path d="M2893 1454 c-3 -8 -1 -20 5 -26 15 -15 43 8 35 28 -7 19 -32 18 -40
-2z"/>
</g>
</svg>
